<svg xmlns="http://www.w3.org/2000/svg" width="64" height="64" viewBox="0 0 64 64">
  <defs>
    <linearGradient id="gradProgramSupport" x1="0" y1="0" x2="1" y2="1">
      <stop offset="0%" stop-color="#FFB34D"/>
      <stop offset="100%" stop-color="#FF6A3A"/>
    </linearGradient>
  </defs>
  <rect x="4" y="4" width="56" height="56" rx="16" fill="url(#gradProgramSupport)"/>
  <path d="M16 38h9.5c1.4 0 2.7.5 3.7 1.4l2.3 2.1H40a4 4 0 0 1 4 4v2H20a7 7 0 0 1-7-7v-2z"
        fill="none" stroke="#FFFFFF" stroke-width="2.2" stroke-linejoin="round"/>
  <rect x="24" y="18" width="8" height="8" rx="2" fill="none" stroke="#FFFFFF" stroke-width="2.2"/>
  <rect x="34" y="18" width="8" height="8" rx="2" fill="none" stroke="#FFFFFF" stroke-width="2.2"/>
  <rect x="29" y="26" width="8" height="8" rx="2" fill="none" stroke="#FFFFFF" stroke-width="2.2"/>
  <line x1="24" y1="22" x2="20" y2="22" stroke="#FFFFFF" stroke-width="2.0" stroke-linecap="round"/>
  <line x1="42" y1="22" x2="46" y2="22" stroke="#FFFFFF" stroke-width="2.0" stroke-linecap="round"/>
</svg>