<svg xmlns="http://www.w3.org/2000/svg" width="64" height="64" viewBox="0 0 64 64">
  <defs>
    <linearGradient id="gradCommunicationChat" x1="0" y1="0" x2="1" y2="1">
      <stop offset="0%" stop-color="#25B7B0"/>
      <stop offset="100%" stop-color="#0F8AD7"/>
    </linearGradient>
  </defs>
  <rect x="4" y="4" width="56" height="56" rx="16" fill="url(#gradCommunicationChat)"/>
  <path d="M18 20h22a6 6 0 0 1 6 6v8a6 6 0 0 1-6 6h-9l-6 5v-5h-7a6 6 0 0 1-6-6v-8a6 6 0 0 1 6-6z"
        fill="none" stroke="#FFFFFF" stroke-width="2.4" stroke-linejoin="round"/>
  <circle cx="24" cy="28" r="1.6" fill="#FFFFFF"/>
  <circle cx="30" cy="28" r="1.6" fill="#FFFFFF"/>
  <circle cx="36" cy="28" r="1.6" fill="#FFFFFF"/>
  <path d="M34 34h10a4 4 0 0 1 4 4v4a4 4 0 0 1-4 4h-3l-3 3v-3"
        fill="none" stroke="#FFFFFF" stroke-width="2.0" stroke-linejoin="round"/>
</svg>