<svg xmlns="http://www.w3.org/2000/svg" width="64" height="64" viewBox="0 0 64 64">
  <defs>
    <linearGradient id="gradCommunity" x1="0" y1="0" x2="1" y2="1">
      <stop offset="0%" stop-color="#25B7B0"/>
      <stop offset="100%" stop-color="#0F8AD7"/>
    </linearGradient>
  </defs>
  <rect x="4" y="4" width="56" height="56" rx="16" fill="url(#gradCommunity)"/>
  <circle cx="22" cy="26" r="4" fill="none" stroke="#FFFFFF" stroke-width="2.2"/>
  <circle cx="42" cy="26" r="4" fill="none" stroke="#FFFFFF" stroke-width="2.2"/>
  <circle cx="32" cy="38" r="4" fill="none" stroke="#FFFFFF" stroke-width="2.2"/>
  <path d="M22 30v2a6 6 0 0 0 6 6" fill="none" stroke="#FFFFFF" stroke-width="2.0" stroke-linecap="round"/>
  <path d="M42 30v2a6 6 0 0 1-6 6" fill="none" stroke="#FFFFFF" stroke-width="2.0" stroke-linecap="round"/>
  <path d="M28 40a6 6 0 0 1-6 6h-4" fill="none" stroke="#FFFFFF" stroke-width="2.0" stroke-linecap="round"/>
  <path d="M36 40a6 6 0 0 0 6 6h4" fill="none" stroke="#FFFFFF" stroke-width="2.0" stroke-linecap="round"/>
  <circle cx="32" cy="32" r="18" fill="none" stroke="#FFFFFF" stroke-width="2.0" stroke-dasharray="3 3"/>
</svg>