<svg xmlns="http://www.w3.org/2000/svg" width="64" height="64" viewBox="0 0 64 64">
  <defs>
    <linearGradient id="gradFinanceLedger" x1="0" y1="0" x2="1" y2="1">
      <stop offset="0%" stop-color="#25B7B0"/>
      <stop offset="100%" stop-color="#0F8AD7"/>
    </linearGradient>
  </defs>
  <rect x="4" y="4" width="56" height="56" rx="16" fill="url(#gradFinanceLedger)"/>
  <path d="M20 18h18a4 4 0 0 1 4 4v24H22a4 4 0 0 1-4-4V20a2 2 0 0 1 2-2z"
        fill="none" stroke="#FFFFFF" stroke-width="2.4" stroke-linejoin="round"/>
  <path d="M24 18v26a4 4 0 0 1-4 4" fill="none" stroke="#FFFFFF" stroke-width="2.4" stroke-linejoin="round"/>
  <line x1="26" y1="24" x2="36" y2="24" stroke="#FFFFFF" stroke-width="2.0" stroke-linecap="round"/>
  <line x1="26" y1="29" x2="36" y2="29" stroke="#FFFFFF" stroke-width="2.0" stroke-linecap="round"/>
  <line x1="26" y1="34" x2="33" y2="34" stroke="#FFFFFF" stroke-width="2.0" stroke-linecap="round"/>
  <circle cx="40" cy="36" r="7" fill="none" stroke="#FFFFFF" stroke-width="2.2"/>
  <line x1="40" y1="32" x2="40" y2="40" stroke="#FFFFFF" stroke-width="2.2" stroke-linecap="round"/>
  <line x1="37" y1="34" x2="43" y2="34" stroke="#FFFFFF" stroke-width="2.2" stroke-linecap="round"/>
  <line x1="37" y1="38" x2="43" y2="38" stroke="#FFFFFF" stroke-width="2.2" stroke-linecap="round"/>
</svg>