<svg xmlns="http://www.w3.org/2000/svg" width="64" height="64" viewBox="0 0 64 64">
  <defs>
    <linearGradient id="gradAI" x1="0" y1="0" x2="1" y2="1">
      <stop offset="0%" stop-color="#25B7B0"/>
      <stop offset="100%" stop-color="#0F8AD7"/>
    </linearGradient>
  </defs>
  <rect x="4" y="4" width="56" height="56" rx="16" fill="url(#gradAI)"/>
  <rect x="20" y="20" width="24" height="24" rx="6" fill="none" stroke="#FFFFFF" stroke-width="2.4"/>
  <rect x="26" y="26" width="12" height="12" rx="3" fill="none" stroke="#FFFFFF" stroke-width="2.2"/>
  <line x1="24" y1="16" x2="24" y2="20" stroke="#FFFFFF" stroke-width="2.0" stroke-linecap="round"/>
  <line x1="32" y1="16" x2="32" y2="20" stroke="#FFFFFF" stroke-width="2.0" stroke-linecap="round"/>
  <line x1="40" y1="16" x2="40" y2="20" stroke="#FFFFFF" stroke-width="2.0" stroke-linecap="round"/>
  <line x1="24" y1="44" x2="24" y2="48" stroke="#FFFFFF" stroke-width="2.0" stroke-linecap="round"/>
  <line x1="32" y1="44" x2="32" y2="48" stroke="#FFFFFF" stroke-width="2.0" stroke-linecap="round"/>
  <line x1="40" y1="44" x2="40" y2="48" stroke="#FFFFFF" stroke-width="2.0" stroke-linecap="round"/>
  <line x1="16" y1="24" x2="20" y2="24" stroke="#FFFFFF" stroke-width="2.0" stroke-linecap="round"/>
  <line x1="16" y1="32" x2="20" y2="32" stroke="#FFFFFF" stroke-width="2.0" stroke-linecap="round"/>
  <line x1="16" y1="40" x2="20" y2="40" stroke="#FFFFFF" stroke-width="2.0" stroke-linecap="round"/>
  <line x1="44" y1="24" x2="48" y2="24" stroke="#FFFFFF" stroke-width="2.0" stroke-linecap="round"/>
  <line x1="44" y1="32" x2="48" y2="32" stroke="#FFFFFF" stroke-width="2.0" stroke-linecap="round"/>
  <line x1="44" y1="40" x2="48" y2="40" stroke="#FFFFFF" stroke-width="2.0" stroke-linecap="round"/>
</svg>