<svg width="96" height="96" viewBox="0 0 96 96" xmlns="http://www.w3.org/2000/svg">
  <defs>
    <linearGradient id="comm" x1="0%" y1="0%" x2="100%" y2="100%">
      <stop offset="0%" stop-color="#F6C343" />
      <stop offset="100%" stop-color="#FF8F52" />
    </linearGradient>
  </defs>
  <rect width="96" height="96" rx="24" fill="#FFF8EC" />
  <path d="M24 30 h32 a12 12 0 0 1 12 12 v4 a12 12 0 0 1 -12 12 h-6 l-9 8 v-8 h-17 a12 12 0 0 1 -12 -12 v-4 a12 12 0 0 1 12 -12 z" fill="url(#comm)" opacity="0.9" />
  <path d="M40 46 h32 a10 10 0 0 1 10 10 v4 a10 10 0 0 1 -10 10 h-5 l-8 7 v-7 h-19" fill="#F6C343" opacity="0.5" />
  <circle cx="34" cy="42" r="4" fill="#fff" opacity="0.85" />
  <circle cx="46" cy="42" r="4" fill="#fff" opacity="0.7" />
  <circle cx="58" cy="42" r="4" fill="#fff" opacity="0.55" />
</svg>
