<svg width="512" height="512" version="1.1" xmlns="http://www.w3.org/2000/svg"><defs><linearGradient id="grad" x1="0%" y1="0%" x2="100%" y2="100%"><stop offset="0%" style="stop-color:#25B7B0;stop-opacity:1" /><stop offset="100%" style="stop-color:#0F8AD7;stop-opacity:1" /></linearGradient></defs><path d="M160 120 L200 120 Q210 120 210 130 L210 380 Q210 390 200 390 L160 390 Q150 390 150 380 L150 130 Q150 120 160 120 Z" fill="url(#grad)" /><path d="M260 120 L380 120 Q390 120 390 130 L390 380 Q390 390 380 390 L260 390 Q250 390 250 380 L250 250 Q250 240 260 240 L300 240 Q310 240 310 250 L310 330 Q310 340 320 340 L330 340 Q340 340 340 330 L340 130 Q340 120 350 120 Z" fill="url(#grad)" /></svg>