<svg id="图层_1" data-name="图层 1" xmlns="http://www.w3.org/2000/svg" xmlns:xlink="http://www.w3.org/1999/xlink" viewBox="0 0 330.35 471.37"><defs><style>.cls-1{fill:url(#未命名的渐变_3);}.cls-2{fill:url(#未命名的渐变_5);}</style><linearGradient id="未命名的渐变_3" x1="356.17" y1="640.61" x2="422.38" y2="574.14" gradientUnits="userSpaceOnUse"><stop offset="0" stop-color="#a113ff"/><stop offset="1" stop-color="#5f5ffc"/></linearGradient><linearGradient id="未命名的渐变_5" x1="467.37" y1="488.04" x2="677.18" y2="488.04" gradientUnits="userSpaceOnUse"><stop offset="0" stop-color="#a113ff"/><stop offset="1" stop-color="#29c7ea"/></linearGradient></defs><path class="cls-1" d="M440.65,420.23l-81.91,56.88a27.77,27.77,0,0,0-11.92,22.79V712a15.62,15.62,0,0,0,6.4,12.61l26.61,19.46a18.61,18.61,0,0,0,21.52.31l39.3-27.06Z" transform="translate(-346.82 -276.32)"/><path class="cls-2" d="M467.37,402V699.76l92.52-63.2L557.42,431a15.63,15.63,0,0,1,9.93-14.74h0A12.21,12.21,0,0,1,584,427.68V620.31l93.18-63.9V298.72A22.37,22.37,0,0,0,642,280.36Z" transform="translate(-346.82 -276.32)"/></svg>